<svg xmlns="http://www.w3.org/2000/svg" viewBox="0 0 400 300">
  <defs>
    <linearGradient id="bg6" x1="0%" y1="0%" x2="100%" y2="100%">
      <stop offset="0%" stop-color="#0a1428"/><stop offset="100%" stop-color="#16294a"/>
    </linearGradient>
  </defs>
  <rect width="400" height="300" fill="url(#bg6)"/>
  <!-- battery cells -->
  <g>
    <rect x="110" y="110" width="40" height="90" rx="6" fill="#0f1e38" stroke="#2dd4bf" stroke-width="2.5"/>
    <rect x="123" y="98" width="14" height="12" fill="#2dd4bf"/>
    <rect x="160" y="110" width="40" height="90" rx="6" fill="#0f1e38" stroke="#3b82f6" stroke-width="2.5"/>
    <rect x="173" y="98" width="14" height="12" fill="#3b82f6"/>
    <rect x="210" y="110" width="40" height="90" rx="6" fill="#0f1e38" stroke="#5eead4" stroke-width="2.5"/>
    <rect x="223" y="98" width="14" height="12" fill="#5eead4"/>
  </g>
  <rect x="115" y="130" width="30" height="16" fill="#2dd4bf" opacity="0.35"/>
  <rect x="165" y="150" width="30" height="16" fill="#3b82f6" opacity="0.35"/>
  <rect x="215" y="120" width="30" height="16" fill="#5eead4" opacity="0.35"/>
  <!-- BMS board below -->
  <rect x="95" y="215" width="210" height="30" rx="4" fill="#0f1e38" stroke="#2dd4bf" stroke-width="2"/>
  <text x="200" y="235" text-anchor="middle" fill="#5eead4" font-family="monospace" font-size="11">BMS</text>
  <g stroke="#2dd4bf" stroke-width="2"><line x1="130" y1="200" x2="130" y2="215"/><line x1="180" y1="200" x2="180" y2="215"/><line x1="230" y1="200" x2="230" y2="215"/></g>
</svg>
