<svg xmlns="http://www.w3.org/2000/svg" viewBox="0 0 400 300">
  <defs>
    <linearGradient id="bg5" x1="0%" y1="0%" x2="100%" y2="100%">
      <stop offset="0%" stop-color="#0a1428"/><stop offset="100%" stop-color="#16294a"/>
    </linearGradient>
  </defs>
  <rect width="400" height="300" fill="url(#bg5)"/>
  <!-- sun -->
  <circle cx="120" cy="90" r="26" fill="none" stroke="#f59e0b" stroke-width="4"/>
  <g stroke="#f59e0b" stroke-width="3" stroke-linecap="round">
    <line x1="120" y1="48" x2="120" y2="34"/><line x1="120" y1="132" x2="120" y2="146"/>
    <line x1="78" y1="90" x2="64" y2="90"/><line x1="162" y1="90" x2="176" y2="90"/>
    <line x1="90" y1="60" x2="80" y2="50"/><line x1="150" y1="120" x2="160" y2="130"/>
  </g>
  <!-- panel -->
  <rect x="70" y="150" width="120" height="80" rx="4" fill="#0f1e38" stroke="#2dd4bf" stroke-width="2.5"/>
  <g stroke="#5eead4" stroke-width="1.5"><line x1="100" y1="150" x2="100" y2="230"/><line x1="130" y1="150" x2="130" y2="230"/><line x1="160" y1="150" x2="160" y2="230"/><line x1="70" y1="175" x2="190" y2="175"/><line x1="70" y1="205" x2="190" y2="205"/></g>
  <!-- controller box -->
  <rect x="230" y="150" width="100" height="80" rx="6" fill="#0f1e38" stroke="#3b82f6" stroke-width="2.5"/>
  <text x="280" y="185" text-anchor="middle" fill="#5eead4" font-family="monospace" font-size="14">MPPT</text>
  <rect x="250" y="200" width="60" height="10" rx="3" fill="#3b82f6" opacity="0.6"/>
  <path d="M190 190 h40" stroke="#2dd4bf" stroke-width="3" fill="none"/>
</svg>
